<svg height="21" viewBox="60 178 21 21" width="21" xmlns="http://www.w3.org/2000/svg"><g fill="none" fill-rule="evenodd" transform="translate(60 178)"><rect fill="#98a5b3" height="21" rx="10.5" width="21"/><path d="m6.53814323 8.36423021c-.13973115.25865649-.25487159.53254976-.34228877.81854723-.07072704.08495953-.18347505.17178489-.35576657.19222256h-1.50647221c-.18375417 0-.33361568.14863934-.33361568.33199525v1.58600955c0 .1843664.15138126.3319952.33811951.3319952h1.50196838c.16590292 0 .27659623.0797011.34772464.1656162.08565346.2865985.19909894.561202.33720864.8206826.01022078.1101992-.00794284.2516615-.11557175.3882615l-1.06523672 1.0652367c-.12993381.1299339-.13079802.3410058-.00114581.470658l1.12147807 1.1214781c.13036678.1303668.34179881.1277134.47384269-.0043305l1.06205203-1.062052c.11759424-.1175943.25259029-.1393312.36379053-.1286938.25865649.1397311.53254976.2548716.81854723.3422887.08495953.0707271.17178489.1834751.19222256.3557666v1.5064722c0 .1837542.14863934.3336157.33199525.3336157h1.58600955c.1843664 0 .3319952-.1513813.3319952-.3381195v-1.5019684c0-.1659029.0797011-.2765962.1656162-.3477246.2865985-.0856535.561202-.199099.8206826-.3372087.1101992-.0102207.2516615.0079429.3882615.1155718l1.0652367 1.0652367c.1299339.1299338.3410058.130798.470658.0011458l1.1214781-1.1214781c.1303668-.1303667.1277134-.3417988-.0043305-.4738426l-1.062052-1.0620521c-.1175943-.1175942-.1393312-.2525903-.1286938-.3637905.1397311-.2586565.2548716-.5325498.3422887-.8185472.0707271-.0849596.1834751-.1717849.3557666-.1922226h1.5064722c.1837542 0 .3336157-.1486393.3336157-.3319952v-1.58600955c0-.18436647-.1513813-.33199525-.3381195-.33199525h-1.5019684c-.1659029 0-.2765962-.07970109-.3477246-.16561623-.0856535-.28659845-.199099-.56120193-.3372087-.82068261-.0102207-.1101992.0079429-.2516615.1155718-.38826148l1.0652367-1.06523672c.1299338-.12993382.130798-.34100579.0011458-.470658l-1.1214781-1.12147807c-.1303667-.13036678-.3417988-.12771338-.4738426.0043305l-1.0620521 1.06205203c-.1175942.11759425-.2525903.13933113-.3637905.12869381-.2586565-.13973115-.5325498-.25487159-.8185472-.34228877-.0849596-.07072704-.1717849-.18347505-.1922226-.35576657v-1.50647221c0-.18375417-.1486393-.33361568-.3319952-.33361568h-1.58600955c-.18436647 0-.33199525.15138126-.33199525.33811951v1.50196838c0 .16590292-.07970109.27659623-.16561623.34772464-.28659845.08565346-.56120193.19909894-.82068261.33720864-.1101992.01022078-.2516615-.00794284-.38826148-.11557175l-1.06523672-1.06523672c-.12993382-.12993381-.34100579-.13079802-.470658-.00114581l-1.12147807 1.12147807c-.13036678.13036678-.12771338.34179881.0043305.47384269l1.06205203 1.06205203c.11759425.11759424.13933113.25259029.12869381.36379053zm3.96185677 4.40150409c1.2513305 0 2.2657343-1.0144038 2.2657343-2.2657343 0-1.25133048-1.0144038-2.26573427-2.2657343-2.26573427-1.25133048 0-2.26573427 1.01440379-2.26573427 2.26573427 0 1.2513305 1.01440379 2.2657343 2.26573427 2.2657343z" fill="#fff"/></g></svg>